PathFileType  4	(X/Y/Z) C:\Users\antoi\Documents\MyRepositories\mobilecap\ResultsAnalysis
DataRate	CameraRate	NumFrames	NumMarkers	Units	OrigDataRate	OrigDataStartFrame	OrigNumFrames
100.0	100.0	5	51	mm	100.0	1	268
Frame#	Time	r_knee			r_shank_antsup			r_ankle			r_calc			r_5meta			r_toe			L_knee			L_shank_antsup			L_ankle			L_calc			L_5meta			L_toe			r_sh2			r_sh3			r_sh4			L_sh2			L_sh3			r_thigh1			r_thigh2			r_thigh3			r_thigh4			r_thigh5			L_thigh1			L_thigh2			L_thigh3			L_thigh4			r.ASIS			r.PSIS			L.ASIS			L.PSIS			C7			R_Shoulder			L_Shoulder			R_Sternum			L_Sternum			R_humerus			R_elbow_med			R_elbow_lat			R_forearm			R_wrist_radius			R_wrist_ulna			L_humerus			L_elbow_med			L_elbow_lat			L_forearm			L_wrist_radius			L_wrist_ulna			R_HJC			L_HJC			R_HJC_reg			L_HJC_reg			
		X1	Y1	Z1	X2	Y2	Z2	X3	Y3	Z3	X4	Y4	Z4	X5	Y5	Z5	X6	Y6	Z6	X7	Y7	Z7	X8	Y8	Z8	X9	Y9	Z9	X10	Y10	Z10	X11	Y11	Z11	X12	Y12	Z12	X13	Y13	Z13	X14	Y14	Z14	X15	Y15	Z15	X16	Y16	Z16	X17	Y17	Z17	X18	Y18	Z18	X19	Y19	Z19	X20	Y20	Z20	X21	Y21	Z21	X22	Y22	Z22	X23	Y23	Z23	X24	Y24	Z24	X25	Y25	Z25	X26	Y26	Z26	X27	Y27	Z27	X28	Y28	Z28	X29	Y29	Z29	X30	Y30	Z30	X31	Y31	Z31	X32	Y32	Z32	X33	Y33	Z33	X34	Y34	Z34	X35	Y35	Z35	X36	Y36	Z36	X37	Y37	Z37	X38	Y38	Z38	X39	Y39	Z39	X40	Y40	Z40	X41	Y41	Z41	X42	Y42	Z42	X43	Y43	Z43	X44	Y44	Z44	X45	Y45	Z45	X46	Y46	Z46	X47	Y47	Z47	X48	Y48	Z48	X49	Y49	Z49	X50	Y50	Z50	X51	Y51	Z51	

1	0.00000000	-1194.80723	846.29752	-464.57613	-1175.24654	767.49492	-449.21074	-1249.45936	410.81236	-472.80124	-1304.98964	362.08284	-526.12457	-1114.52309	345.77625	-418.11303	-1073.55386	368.97956	-475.35415	-1169.86240	844.04072	-763.81301	-1152.77233	724.75505	-774.88622	-1246.48548	405.97803	-757.00048	-1314.20445	361.60864	-720.76976	-1096.08034	339.41978	-796.89550	-1070.91666	365.98314	-733.13605	-1185.58567	654.82066	-439.91048	-1248.93735	774.20681	-437.53878	-1267.67416	659.05853	-437.82418	-1237.70619	745.73948	-796.31003	-1252.52694	623.59363	-792.44477	-1126.55430	1164.35908	-430.16397	-1117.37953	1054.12530	-441.02806	-1170.16890	1022.92723	-417.76654	-1238.99739	1150.63623	-436.71638	-1221.62395	1035.05292	-434.95526	-1096.00211	1166.16724	-785.23535	-1087.07512	1028.87622	-781.31586	-1212.12022	1157.36137	-800.57665	-1195.78765	1018.61487	-796.63829	-1094.44366	1352.96355	-478.03074	-1276.81726	1420.63077	-570.41365	-1076.01689	1347.69540	-738.44328	-1267.52482	1418.51825	-677.09425	-1231.26775	1924.27319	-630.94684	-1204.32918	1881.23215	-456.99373	-1170.61411	1889.83902	-784.71860	-1094.03124	1840.37436	-583.29889	-1088.95707	1833.44866	-634.64859	-1254.98705	1620.05840	-361.22110	-1276.26890	1526.92998	-436.33105	-1282.37278	1534.83730	-350.68503	-1214.61254	1391.51846	-320.96787	-1168.67737	1284.45083	-322.90384	-1211.12426	1282.65888	-307.31891	-1192.04943	1632.35352	-873.80631	-1247.33750	1547.24715	-816.01527	-1221.94130	1546.75632	-878.72516	-1170.68615	1382.97289	-896.22557	-1135.33317	1289.50426	-887.88231	-1173.44680	1282.38847	-899.58239	-1190.81116	1288.17259	-491.98417	-1171.52163	1283.53546	-721.49633	-1178.08033	1288.17529	-521.25322	-1163.12840	1284.77615	-692.90683	
2	0.01000000	-1194.81269	846.27830	-464.56538	-1175.25050	767.41586	-449.14722	-1249.35907	410.94595	-472.68388	-1304.99567	362.08116	-526.12003	-1114.50220	345.79890	-418.13372	-1073.59082	368.97845	-475.34554	-1169.73819	843.91214	-763.49264	-1152.63629	724.68991	-774.83614	-1246.47702	405.96956	-756.99956	-1314.17127	361.58668	-720.78641	-1096.09819	339.43915	-796.88306	-1070.93796	365.98920	-733.08415	-1185.87598	654.81926	-439.89919	-1248.95591	774.10053	-437.54243	-1267.68242	659.11851	-437.78428	-1237.59882	745.65861	-796.25983	-1252.37845	623.42330	-792.30924	-1126.60827	1164.38477	-430.23081	-1117.23537	1054.04832	-440.99934	-1170.31576	1022.93469	-417.77525	-1239.22740	1150.50859	-436.77429	-1221.83015	1035.01115	-434.97877	-1096.12792	1166.15312	-785.20925	-1087.08459	1028.79763	-781.27597	-1212.35550	1157.17821	-800.58173	-1195.82227	1018.55249	-796.62766	-1094.78241	1353.01184	-477.98353	-1277.47140	1420.40678	-570.50482	-1076.36339	1347.70400	-738.42112	-1267.90824	1418.39666	-677.06583	-1230.89830	1924.46044	-631.10281	-1203.92971	1881.28132	-456.92731	-1170.16006	1889.87116	-784.78535	-1093.77475	1840.12867	-582.93853	-1088.55224	1833.36888	-634.53400	-1255.29089	1620.32766	-361.07990	-1277.72203	1526.86450	-436.25741	-1282.92087	1535.24293	-350.59738	-1215.21786	1391.77668	-320.84104	-1169.28298	1284.69190	-322.66883	-1211.68148	1283.11751	-306.60793	-1192.11174	1632.41706	-873.85366	-1247.59074	1547.38223	-816.03494	-1222.21079	1546.87110	-878.74377	-1171.32729	1382.88866	-896.13377	-1136.10126	1289.50593	-888.17825	-1174.17247	1282.59048	-900.10218	-1191.15762	1288.09567	-491.97803	-1171.79496	1283.46362	-721.48413	-1178.51076	1287.90289	-521.49582	-1163.10765	1284.66523	-693.12907	
3	0.02000000	-1194.73740	846.27164	-464.53902	-1175.21746	767.36063	-449.11768	-1249.32255	410.93883	-472.63573	-1305.00621	362.08016	-526.11273	-1114.50559	345.81280	-418.14319	-1073.61290	368.98149	-475.35088	-1169.55596	843.84892	-763.39750	-1152.46618	724.60703	-774.78730	-1246.46831	405.96694	-757.00136	-1314.11490	361.53105	-720.76485	-1096.15139	339.46186	-796.78993	-1070.96963	366.01015	-733.05818	-1185.89882	654.71217	-439.95458	-1248.89964	774.04513	-437.52469	-1267.66165	659.11242	-437.81838	-1237.46717	745.52977	-796.09479	-1252.30335	623.30550	-792.20610	-1126.70468	1164.42783	-430.14302	-1117.56992	1053.99416	-441.12355	-1170.39034	1022.99026	-417.76917	-1239.51031	1150.36766	-436.86139	-1222.06919	1034.91990	-435.00807	-1096.29444	1166.18795	-785.30267	-1087.11627	1028.80488	-781.27421	-1212.57102	1157.10110	-800.67358	-1195.83832	1018.48508	-796.62134	-1095.18100	1352.96878	-478.08931	-1277.96324	1420.32996	-570.53491	-1076.74770	1347.70340	-738.40356	-1268.30729	1418.26682	-677.10889	-1230.58626	1924.77359	-631.41433	-1203.52566	1881.40273	-456.84411	-1169.70338	1889.89480	-784.91999	-1093.44202	1839.94047	-582.87341	-1088.18439	1833.26753	-634.42016	-1255.51792	1620.65764	-360.87370	-1278.76339	1527.11959	-436.12222	-1283.56617	1535.72095	-350.45917	-1215.80029	1392.05559	-320.67358	-1169.99647	1284.93112	-322.41471	-1212.41326	1283.44302	-306.12344	-1192.17661	1632.46457	-873.84796	-1247.85199	1547.54530	-816.07192	-1222.49068	1547.00983	-878.84848	-1171.98074	1382.86526	-896.08260	-1136.88242	1289.56658	-888.41880	-1174.99933	1282.66391	-900.27480	-1191.54029	1288.01944	-492.02556	-1172.15539	1283.41122	-721.53026	-1178.95077	1287.94061	-521.62706	-1163.40891	1284.61998	-693.16506	
4	0.03000000	-1194.60506	846.24297	-464.52349	-1175.12642	767.35107	-449.09457	-1249.33834	410.88725	-472.64478	-1305.02484	362.06898	-526.10456	-1114.52326	345.82232	-418.14236	-1073.62912	369.00030	-475.37180	-1169.27751	843.85816	-763.53503	-1152.23412	724.45651	-774.77075	-1246.47309	405.94923	-756.97515	-1314.34951	361.43835	-720.64229	-1096.20857	339.51537	-796.69425	-1070.99987	366.04693	-733.02791	-1185.67592	654.53785	-440.06461	-1248.77477	774.04239	-437.46092	-1267.61208	659.07293	-437.88536	-1237.24187	745.38291	-795.94192	-1252.17093	623.24775	-792.12034	-1126.93642	1164.58344	-429.93218	-1117.54508	1054.04084	-441.32912	-1170.48385	1022.96317	-417.82744	-1239.82629	1150.23771	-436.81737	-1222.27117	1034.78470	-435.04467	-1096.53439	1166.25515	-785.38560	-1087.15188	1028.87268	-781.27793	-1212.78604	1157.06266	-800.86636	-1195.83051	1018.37299	-796.66178	-1095.62809	1352.91604	-478.25553	-1278.34752	1420.32325	-570.50902	-1077.14836	1347.73038	-738.42831	-1268.71438	1418.16050	-677.19811	-1230.06860	1924.97718	-631.52677	-1203.10066	1881.53666	-456.78042	-1169.20410	1889.87894	-784.92109	-1093.03189	1839.73406	-583.14819	-1087.75928	1833.13760	-634.37071	-1255.72694	1621.06687	-360.60928	-1279.60793	1527.58673	-435.75159	-1284.18412	1536.23092	-350.08220	-1216.40346	1392.34593	-320.42776	-1170.84275	1285.16008	-322.21262	-1213.26213	1283.70679	-305.78878	-1192.24053	1632.53701	-873.86200	-1248.15090	1547.75180	-816.15975	-1222.79397	1547.18470	-879.01426	-1172.64863	1382.99189	-896.31652	-1137.71854	1289.63121	-888.64828	-1175.94503	1282.64913	-900.21477	-1191.92847	1287.96051	-492.10597	-1172.55248	1283.39668	-721.61233	-1179.36820	1288.10686	-521.68635	-1163.88814	1284.63144	-693.13510	
5	0.04000000	-1194.43768	846.17706	-464.52714	-1174.98526	767.35753	-449.04085	-1249.37564	410.91090	-472.66075	-1305.06347	362.04068	-526.10571	-1114.53902	345.84031	-418.13527	-1073.66420	369.04597	-475.40267	-1168.91567	843.86287	-763.67405	-1151.91998	724.21068	-774.73889	-1246.49846	405.91695	-756.92295	-1314.78388	361.34731	-720.50079	-1096.24959	339.58834	-796.63474	-1071.01513	366.10279	-732.97884	-1185.47490	654.39893	-440.16562	-1248.63001	774.05220	-437.40609	-1267.55574	659.04881	-437.93556	-1236.91759	745.25712	-795.93165	-1251.90232	623.22091	-792.03072	-1127.35281	1164.82784	-429.71537	-1117.22294	1054.11822	-441.54473	-1170.60534	1022.83972	-417.92409	-1240.05863	1150.15692	-436.62690	-1222.37104	1034.67230	-435.06001	-1096.84590	1166.24390	-785.21629	-1087.16386	1028.94523	-781.23632	-1212.99857	1156.93499	-801.01313	-1195.79686	1018.21266	-796.73585	-1096.11006	1352.95580	-478.31016	-1278.94655	1420.28032	-570.54733	-1077.55833	1347.76934	-738.50126	-1269.14917	1418.09055	-677.25506	-1229.24055	1924.95076	-631.28460	-1202.61936	1881.62950	-456.74037	-1168.62488	1889.82891	-784.65318	-1092.63284	1839.44516	-583.07477	-1087.23438	1833.00239	-634.43156	-1256.00391	1621.52919	-360.28870	-1280.55332	1528.08936	-435.13738	-1284.72565	1536.74590	-349.44772	-1217.08869	1392.69247	-320.06836	-1171.78403	1285.40570	-322.04523	-1214.07070	1284.04202	-305.45612	-1192.30439	1632.72762	-874.04032	-1248.51280	1548.01395	-816.37156	-1223.14936	1547.41772	-879.17531	-1173.35374	1383.26322	-896.89674	-1138.63441	1289.62727	-888.94724	-1176.97126	1282.67689	-900.30802	-1192.37744	1287.94370	-492.16501	-1172.95612	1283.39367	-721.66781	-1179.91137	1288.10558	-521.86353	-1164.17046	1284.58739	-693.30258	
